<svg xmlns="http://www.w3.org/2000/svg" viewBox="0 0 600 400" width="600" height="400">
  <!-- Main Scroll -->
  <path d="M50,50 L550,50 C570,50 570,70 550,70 L550,330 C570,330 570,350 550,350 L50,350 C30,350 30,330 50,330 L50,70 C30,70 30,50 50,50 Z" fill="#e9c46a"/>
  
  <!-- Scroll Shading -->
  <path d="M50,50 L550,50 C570,50 570,70 550,70 L550,330 C570,330 570,350 550,350 L50,350 C30,350 30,330 50,330 L50,70 C30,70 30,50 50,50 Z" fill="none" stroke="#0d1b2a" stroke-width="2"/>
  
  <!-- Left Scroll Edge -->
  <path d="M50,70 C40,90 40,310 50,330" fill="none" stroke="#0d1b2a" stroke-width="2"/>
  <path d="M60,70 C50,90 50,310 60,330" fill="none" stroke="#0d1b2a" stroke-width="1" stroke-opacity="0.5"/>
  
  <!-- Right Scroll Edge -->
  <path d="M550,70 C560,90 560,310 550,330" fill="none" stroke="#0d1b2a" stroke-width="2"/>
  <path d="M540,70 C550,90 550,310 540,330" fill="none" stroke="#0d1b2a" stroke-width="1" stroke-opacity="0.5"/>
  
  <!-- Scroll Texture -->
  <rect x="80" y="80" width="440" height="240" fill="#f5f5f5" fill-opacity="0.7"/>
  
  <!-- Scroll Texture Lines -->
  <path d="M100,100 L500,100" stroke="#0d1b2a" stroke-width="0.5" stroke-opacity="0.2"/>
  <path d="M100,120 L500,120" stroke="#0d1b2a" stroke-width="0.5" stroke-opacity="0.2"/>
  <path d="M100,140 L500,140" stroke="#0d1b2a" stroke-width="0.5" stroke-opacity="0.2"/>
  <path d="M100,160 L500,160" stroke="#0d1b2a" stroke-width="0.5" stroke-opacity="0.2"/>
  <path d="M100,180 L500,180" stroke="#0d1b2a" stroke-width="0.5" stroke-opacity="0.2"/>
  <path d="M100,200 L500,200" stroke="#0d1b2a" stroke-width="0.5" stroke-opacity="0.2"/>
  <path d="M100,220 L500,220" stroke="#0d1b2a" stroke-width="0.5" stroke-opacity="0.2"/>
  <path d="M100,240 L500,240" stroke="#0d1b2a" stroke-width="0.5" stroke-opacity="0.2"/>
  <path d="M100,260 L500,260" stroke="#0d1b2a" stroke-width="0.5" stroke-opacity="0.2"/>
  <path d="M100,280 L500,280" stroke="#0d1b2a" stroke-width="0.5" stroke-opacity="0.2"/>
  <path d="M100,300 L500,300" stroke="#0d1b2a" stroke-width="0.5" stroke-opacity="0.2"/>
  
  <!-- Pirate Elements -->
  <path d="M70,40 L80,30 L90,40" fill="none" stroke="#0d1b2a" stroke-width="2"/>
  <path d="M510,40 L520,30 L530,40" fill="none" stroke="#0d1b2a" stroke-width="2"/>
  
  <!-- Wax Seal -->
  <circle cx="300" cy="350" r="15" fill="#f4a261"/>
  <path d="M290,350 L310,350 M300,340 L300,360" stroke="#0d1b2a" stroke-width="1"/>
  
  <!-- Rope Tie -->
  <path d="M300,50 C310,40 320,40 330,50 C340,60 350,60 360,50" fill="none" stroke="#0d1b2a" stroke-width="3"/>
  <path d="M300,50 C290,40 280,40 270,50 C260,60 250,60 240,50" fill="none" stroke="#0d1b2a" stroke-width="3"/>
</svg>